G04 Layer_Color=65535*
%FSLAX23Y23*%
%MOIN*%
G70*
G01*
G75*
%ADD17C,0.010*%
%ADD24C,0.004*%
%ADD25C,0.010*%
%ADD26C,0.005*%
D17*
X1537Y1695D02*
X1773D01*
X1537Y1845D02*
X1773D01*
D24*
X1789Y1380D02*
G03*
X1789Y1380I-5J0D01*
G01*
X1786Y1509D02*
X1790D01*
X1786Y1391D02*
X1790D01*
X1786D02*
Y1509D01*
X1905Y1391D02*
Y1509D01*
X1901Y1509D02*
X1905Y1509D01*
X1901Y1391D02*
X1905D01*
X1954Y1190D02*
Y1710D01*
X2033D01*
X1954Y1190D02*
X2033D01*
X2164Y1710D02*
X2479D01*
X2164Y1190D02*
X2479D01*
Y1710D01*
X2346Y1190D02*
Y1710D01*
X1835Y1595D02*
Y1655D01*
X1640Y1595D02*
Y1655D01*
X1232Y1214D02*
Y1686D01*
X644Y1214D02*
Y1686D01*
Y1214D02*
X1260D01*
X1378Y1293D02*
Y1575D01*
X644Y1686D02*
X1260D01*
X1578Y1149D02*
Y1208D01*
X1775Y1237D02*
X1835D01*
X1655Y1304D02*
X1693Y1304D01*
X1655Y1277D02*
Y1304D01*
Y1186D02*
Y1213D01*
Y1186D02*
X1693Y1186D01*
X1640Y1515D02*
Y1575D01*
D25*
X1751Y1176D02*
G03*
X1751Y1176I-5J0D01*
G01*
D26*
X1715Y1465D02*
Y1436D01*
X1721Y1430D01*
X1732D01*
X1738Y1436D01*
Y1465D01*
X1750Y1430D02*
X1762D01*
X1756D01*
Y1465D01*
X1750Y1459D01*
X1830Y1705D02*
X1824Y1711D01*
X1812D01*
X1806Y1705D01*
Y1682D01*
X1812Y1676D01*
X1824D01*
X1830Y1682D01*
X1841Y1705D02*
X1847Y1711D01*
X1859D01*
X1865Y1705D01*
Y1700D01*
X1859Y1694D01*
X1853D01*
X1859D01*
X1865Y1688D01*
Y1682D01*
X1859Y1676D01*
X1847D01*
X1841Y1682D01*
X1478Y1713D02*
X1472Y1719D01*
X1460D01*
X1455Y1713D01*
Y1707D01*
X1460Y1701D01*
X1472D01*
X1478Y1695D01*
Y1690D01*
X1472Y1684D01*
X1460D01*
X1455Y1690D01*
X1490Y1684D02*
X1501D01*
X1495D01*
Y1719D01*
X1490Y1713D01*
X1505Y1610D02*
Y1645D01*
X1522D01*
X1528Y1639D01*
Y1627D01*
X1522Y1622D01*
X1505D01*
X1517D02*
X1528Y1610D01*
X1540D02*
X1552D01*
X1546D01*
Y1645D01*
X1540Y1639D01*
X1630Y1355D02*
Y1326D01*
X1636Y1320D01*
X1647D01*
X1653Y1326D01*
Y1355D01*
X1688Y1320D02*
X1665D01*
X1688Y1343D01*
Y1349D01*
X1682Y1355D01*
X1671D01*
X1665Y1349D01*
X1873Y1249D02*
X1867Y1255D01*
X1856D01*
X1850Y1249D01*
Y1226D01*
X1856Y1220D01*
X1867D01*
X1873Y1226D01*
X1908Y1220D02*
X1885D01*
X1908Y1243D01*
Y1249D01*
X1902Y1255D01*
X1891D01*
X1885Y1249D01*
X1473Y1189D02*
X1467Y1195D01*
X1456D01*
X1450Y1189D01*
Y1166D01*
X1456Y1160D01*
X1467D01*
X1473Y1166D01*
X1485Y1160D02*
X1497D01*
X1491D01*
Y1195D01*
X1485Y1189D01*
X1288Y1155D02*
X1277D01*
X1282D01*
Y1126D01*
X1277Y1120D01*
X1271D01*
X1265Y1126D01*
X1300Y1120D02*
X1312D01*
X1306D01*
Y1155D01*
X1300Y1149D01*
X2218Y1160D02*
X2207D01*
X2212D01*
Y1131D01*
X2207Y1125D01*
X2201D01*
X2195Y1131D01*
X2253Y1125D02*
X2230D01*
X2253Y1148D01*
Y1154D01*
X2247Y1160D01*
X2236D01*
X2230Y1154D01*
X1523Y1559D02*
X1517Y1565D01*
X1506D01*
X1500Y1559D01*
Y1536D01*
X1506Y1530D01*
X1517D01*
X1523Y1536D01*
X1552Y1530D02*
Y1565D01*
X1535Y1547D01*
X1558D01*
M02*
