G04 Layer_Color=32896*
%FSLAX23Y23*%
%MOIN*%
G70*
G01*
G75*
%ADD37C,0.008*%
D37*
X1945Y1830D02*
Y1797D01*
X1938Y1790D01*
X1925D01*
X1918Y1797D01*
Y1830D01*
X1878Y1823D02*
X1885Y1830D01*
X1898D01*
X1905Y1823D01*
Y1817D01*
X1898Y1810D01*
X1885D01*
X1878Y1803D01*
Y1797D01*
X1885Y1790D01*
X1898D01*
X1905Y1797D01*
X1865Y1830D02*
Y1790D01*
X1845D01*
X1838Y1797D01*
Y1803D01*
X1845Y1810D01*
X1865D01*
X1845D01*
X1838Y1817D01*
Y1823D01*
X1845Y1830D01*
X1865D01*
X1785D02*
X1772D01*
X1778D01*
Y1790D01*
X1785D01*
X1772D01*
X1752D02*
Y1817D01*
X1732D01*
X1725Y1810D01*
Y1790D01*
X1705Y1823D02*
Y1817D01*
X1712D01*
X1698D01*
X1705D01*
Y1797D01*
X1698Y1790D01*
X1658D02*
X1672D01*
X1678Y1797D01*
Y1810D01*
X1672Y1817D01*
X1658D01*
X1652Y1810D01*
Y1803D01*
X1678D01*
X1638Y1817D02*
Y1790D01*
Y1803D01*
X1632Y1810D01*
X1625Y1817D01*
X1618D01*
X1598D02*
Y1790D01*
Y1803D01*
X1592Y1810D01*
X1585Y1817D01*
X1578D01*
X1558D02*
Y1797D01*
X1552Y1790D01*
X1532D01*
Y1817D01*
X1518Y1777D02*
Y1817D01*
X1498D01*
X1492Y1810D01*
Y1797D01*
X1498Y1790D01*
X1518D01*
X1472Y1823D02*
Y1817D01*
X1478D01*
X1465D01*
X1472D01*
Y1797D01*
X1465Y1790D01*
X1438D02*
X1425D01*
X1419Y1797D01*
Y1810D01*
X1425Y1817D01*
X1438D01*
X1445Y1810D01*
Y1797D01*
X1438Y1790D01*
X1405Y1817D02*
Y1790D01*
Y1803D01*
X1399Y1810D01*
X1392Y1817D01*
X1385D01*
X1945Y1755D02*
Y1728D01*
X1932Y1715D01*
X1918Y1728D01*
Y1755D01*
X1905Y1715D02*
X1892D01*
X1898D01*
Y1755D01*
X1905Y1748D01*
X1872Y1715D02*
Y1722D01*
X1865D01*
Y1715D01*
X1872D01*
X1838Y1748D02*
X1832Y1755D01*
X1818D01*
X1812Y1748D01*
Y1722D01*
X1818Y1715D01*
X1832D01*
X1838Y1722D01*
Y1748D01*
M02*
