G04 Layer_Physical_Order=2*
G04 Layer_Color=16711680*
%FSLAX23Y23*%
%MOIN*%
G70*
G01*
G75*
%ADD16C,0.020*%
%ADD18C,0.102*%
%ADD19C,0.047*%
%ADD20C,0.098*%
%ADD21C,0.039*%
%ADD22C,0.031*%
%ADD23R,0.495X0.285*%
G36*
X2335Y1090D02*
X1242D01*
Y1863D01*
X2335D01*
Y1090D01*
D02*
G37*
%LPC*%
G36*
X1334Y1280D02*
X1324Y1278D01*
X1311Y1273D01*
X1300Y1264D01*
X1291Y1253D01*
X1286Y1240D01*
X1285Y1231D01*
X1334D01*
Y1280D01*
D02*
G37*
G36*
X2103Y1250D02*
Y1199D01*
X2154D01*
X2153Y1208D01*
X2147Y1222D01*
X2138Y1234D01*
X2127Y1243D01*
X2113Y1249D01*
X2103Y1250D01*
D02*
G37*
G36*
X1339Y1388D02*
X1332Y1387D01*
X1325Y1385D01*
X1320Y1380D01*
X1315Y1375D01*
X1313Y1368D01*
X1312Y1361D01*
X1313Y1354D01*
X1315Y1348D01*
X1320Y1342D01*
X1325Y1338D01*
X1332Y1335D01*
X1339Y1335D01*
X1346Y1335D01*
X1352Y1338D01*
X1358Y1342D01*
X1362Y1348D01*
X1365Y1354D01*
X1365Y1361D01*
X1365Y1368D01*
X1362Y1375D01*
X1358Y1380D01*
X1352Y1385D01*
X1346Y1387D01*
X1339Y1388D01*
D02*
G37*
G36*
X1344Y1280D02*
Y1231D01*
X1393D01*
X1391Y1240D01*
X1386Y1253D01*
X1377Y1264D01*
X1366Y1273D01*
X1353Y1278D01*
X1344Y1280D01*
D02*
G37*
G36*
X2093Y1250D02*
X2084Y1249D01*
X2070Y1243D01*
X2058Y1234D01*
X2049Y1222D01*
X2044Y1208D01*
X2042Y1199D01*
X2093D01*
Y1250D01*
D02*
G37*
G36*
X2154Y1189D02*
X2103D01*
Y1138D01*
X2113Y1139D01*
X2127Y1145D01*
X2138Y1154D01*
X2147Y1165D01*
X2153Y1179D01*
X2154Y1189D01*
D02*
G37*
G36*
X2093D02*
X2042D01*
X2044Y1179D01*
X2049Y1165D01*
X2058Y1154D01*
X2070Y1145D01*
X2084Y1139D01*
X2093Y1138D01*
Y1189D01*
D02*
G37*
G36*
X1393Y1221D02*
X1344D01*
Y1172D01*
X1353Y1173D01*
X1366Y1178D01*
X1377Y1187D01*
X1386Y1198D01*
X1391Y1211D01*
X1393Y1221D01*
D02*
G37*
G36*
X1334D02*
X1285D01*
X1286Y1211D01*
X1291Y1198D01*
X1300Y1187D01*
X1311Y1178D01*
X1324Y1173D01*
X1334Y1172D01*
Y1221D01*
D02*
G37*
G36*
Y1728D02*
X1324Y1727D01*
X1311Y1722D01*
X1300Y1713D01*
X1291Y1702D01*
X1286Y1689D01*
X1285Y1679D01*
X1334D01*
Y1728D01*
D02*
G37*
G36*
X2154Y1701D02*
X2103D01*
Y1650D01*
X2113Y1651D01*
X2127Y1657D01*
X2138Y1666D01*
X2147Y1678D01*
X2153Y1692D01*
X2154Y1701D01*
D02*
G37*
G36*
X1344Y1728D02*
Y1679D01*
X1393D01*
X1391Y1689D01*
X1386Y1702D01*
X1377Y1713D01*
X1366Y1722D01*
X1353Y1727D01*
X1344Y1728D01*
D02*
G37*
G36*
X2103Y1762D02*
Y1711D01*
X2154D01*
X2153Y1721D01*
X2147Y1735D01*
X2138Y1746D01*
X2127Y1755D01*
X2113Y1761D01*
X2103Y1762D01*
D02*
G37*
G36*
X2093D02*
X2084Y1761D01*
X2070Y1755D01*
X2058Y1746D01*
X2049Y1735D01*
X2044Y1721D01*
X2042Y1711D01*
X2093D01*
Y1762D01*
D02*
G37*
G36*
X1992Y1617D02*
X1984Y1616D01*
X1977Y1613D01*
X1971Y1608D01*
X1967Y1602D01*
X1964Y1595D01*
X1964Y1595D01*
X1959Y1594D01*
X1959Y1594D01*
X1955Y1595D01*
X1460D01*
X1456Y1594D01*
X1455Y1590D01*
Y1305D01*
X1456Y1301D01*
X1460Y1300D01*
X1955D01*
X1959Y1301D01*
X1959Y1302D01*
X1965D01*
X1967Y1298D01*
X1971Y1292D01*
X1976Y1288D01*
Y1278D01*
X1959Y1260D01*
X1554D01*
X1548Y1265D01*
X1540Y1266D01*
X1532Y1265D01*
X1525Y1260D01*
X1520Y1253D01*
X1519Y1245D01*
X1520Y1237D01*
X1525Y1230D01*
X1532Y1225D01*
X1540Y1224D01*
X1548Y1225D01*
X1554Y1230D01*
X1965D01*
X1971Y1231D01*
X1976Y1234D01*
X2002Y1261D01*
X2006Y1266D01*
X2007Y1272D01*
Y1288D01*
X2012Y1292D01*
X2017Y1298D01*
X2020Y1305D01*
X2021Y1312D01*
X2020Y1320D01*
X2017Y1327D01*
X2012Y1333D01*
X2006Y1337D01*
X1999Y1340D01*
X1992Y1341D01*
X1984Y1340D01*
X1977Y1337D01*
X1971Y1333D01*
X1967Y1327D01*
X1965Y1324D01*
X1960Y1325D01*
Y1398D01*
X1965Y1399D01*
X1967Y1396D01*
X1971Y1390D01*
X1977Y1386D01*
X1984Y1383D01*
X1992Y1382D01*
X1999Y1383D01*
X2006Y1386D01*
X2012Y1390D01*
X2017Y1396D01*
X2020Y1403D01*
X2021Y1411D01*
X2020Y1418D01*
X2017Y1425D01*
X2012Y1431D01*
X2006Y1436D01*
X1999Y1439D01*
X1992Y1439D01*
X1984Y1439D01*
X1977Y1436D01*
X1971Y1431D01*
X1967Y1425D01*
X1965Y1422D01*
X1960Y1423D01*
Y1477D01*
X1965Y1478D01*
X1967Y1475D01*
X1971Y1469D01*
X1977Y1464D01*
X1984Y1461D01*
X1992Y1461D01*
X1999Y1461D01*
X2006Y1464D01*
X2012Y1469D01*
X2017Y1475D01*
X2020Y1482D01*
X2021Y1489D01*
X2020Y1497D01*
X2017Y1504D01*
X2012Y1510D01*
X2006Y1514D01*
X1999Y1517D01*
X1992Y1518D01*
X1984Y1517D01*
X1977Y1514D01*
X1971Y1510D01*
X1967Y1504D01*
X1965Y1501D01*
X1960Y1502D01*
Y1575D01*
X1965Y1576D01*
X1967Y1573D01*
X1971Y1567D01*
X1977Y1563D01*
X1984Y1560D01*
X1992Y1559D01*
X1999Y1560D01*
X2006Y1563D01*
X2012Y1567D01*
X2017Y1573D01*
X2020Y1580D01*
X2021Y1588D01*
X2020Y1595D01*
X2017Y1602D01*
X2012Y1608D01*
X2006Y1613D01*
X1999Y1616D01*
X1992Y1617D01*
D02*
G37*
G36*
X1339Y1565D02*
X1332Y1565D01*
X1325Y1562D01*
X1320Y1558D01*
X1315Y1552D01*
X1313Y1546D01*
X1312Y1539D01*
X1313Y1532D01*
X1315Y1525D01*
X1320Y1520D01*
X1325Y1515D01*
X1332Y1513D01*
X1339Y1512D01*
X1346Y1513D01*
X1352Y1515D01*
X1358Y1520D01*
X1362Y1525D01*
X1365Y1532D01*
X1365Y1539D01*
X1365Y1546D01*
X1362Y1552D01*
X1358Y1558D01*
X1352Y1562D01*
X1346Y1565D01*
X1339Y1565D01*
D02*
G37*
G36*
X1334Y1669D02*
X1285D01*
X1286Y1660D01*
X1291Y1647D01*
X1300Y1636D01*
X1311Y1627D01*
X1324Y1622D01*
X1334Y1620D01*
Y1669D01*
D02*
G37*
G36*
X2093Y1701D02*
X2042D01*
X2044Y1692D01*
X2049Y1678D01*
X2058Y1666D01*
X2070Y1657D01*
X2084Y1651D01*
X2093Y1650D01*
Y1701D01*
D02*
G37*
G36*
X1393Y1669D02*
X1344D01*
Y1620D01*
X1353Y1622D01*
X1366Y1627D01*
X1377Y1636D01*
X1386Y1647D01*
X1391Y1660D01*
X1393Y1669D01*
D02*
G37*
%LPD*%
D16*
X1992Y1272D02*
Y1312D01*
X1965Y1245D02*
X1992Y1272D01*
X1540Y1245D02*
X1965D01*
D18*
X2098Y1706D02*
D03*
Y1194D02*
D03*
D19*
X1992Y1588D02*
D03*
Y1489D02*
D03*
Y1411D02*
D03*
Y1312D02*
D03*
D20*
X1339Y1226D02*
D03*
Y1674D02*
D03*
D21*
Y1361D02*
D03*
Y1539D02*
D03*
D22*
X1930Y1325D02*
D03*
X1540Y1245D02*
D03*
X1535Y1520D02*
D03*
X1930Y1450D02*
D03*
Y1380D02*
D03*
Y1520D02*
D03*
X1535Y1450D02*
D03*
X1725D02*
D03*
Y1520D02*
D03*
X1535Y1325D02*
D03*
X1725D02*
D03*
Y1385D02*
D03*
X1535D02*
D03*
D23*
X1707Y1447D02*
D03*
M02*
