M48
;Layer_Color=9474304
;FILE_FORMAT=2:4
INCH
;TYPE=PLATED
T1F00S00C0.0197
T2F00S00C0.0362
T3F00S00C0.0433
T4F00S00C0.0827
T5F00S00C0.0906
%
T01
X015397Y012450
X015354Y013250
Y013850
Y014500
Y015200
X017250
Y014500
Y013850
Y013250
X019300
Y013800
Y014500
Y015200
T02
X019917Y013122
Y014106
Y014894
Y015878
T03
X013386Y013614
Y015386
T04
X013386Y012256
Y016744
T05
X020983Y011938
Y017062
M30
